<svg xmlns="http://www.w3.org/2000/svg" xmlns:xlink="http://www.w3.org/1999/xlink" width="45" zoomAndPan="magnify" viewBox="0 0 33.75 33.749998" height="45" preserveAspectRatio="xMidYMid meet" version="1.0"><defs><clipPath id="6508900787"><path d="M 0 0 L 33.5 0 L 33.5 33.5 L 0 33.5 Z M 0 0 " clip-rule="nonzero"/></clipPath></defs><g clip-path="url(#6508900787)"><path fill="#000000" d="M 16.933594 33.6875 C 12.28125 33.6875 8.328125 32.058594 5.070312 28.800781 C 1.8125 25.542969 0.183594 21.589844 0.183594 16.933594 C 0.183594 12.28125 1.8125 8.328125 5.070312 5.070312 C 8.328125 1.8125 12.28125 0.183594 16.933594 0.183594 C 17.371094 0.183594 17.796875 0.199219 18.214844 0.230469 C 18.636719 0.261719 19.046875 0.308594 19.449219 0.371094 C 18.175781 1.269531 17.160156 2.441406 16.398438 3.882812 C 15.636719 5.328125 15.257812 6.886719 15.261719 8.558594 C 15.261719 11.351562 16.238281 13.722656 18.191406 15.679688 C 20.144531 17.632812 22.519531 18.609375 25.3125 18.609375 C 27.015625 18.609375 28.582031 18.230469 30.011719 17.46875 C 31.4375 16.707031 32.601562 15.691406 33.5 14.421875 C 33.5625 14.824219 33.609375 15.238281 33.640625 15.65625 C 33.671875 16.074219 33.6875 16.5 33.6875 16.933594 C 33.6875 21.589844 32.058594 25.542969 28.800781 28.800781 C 25.542969 32.058594 21.589844 33.6875 16.933594 33.6875 M 16.933594 29.964844 C 19.664062 29.964844 22.117188 29.210938 24.285156 27.707031 C 26.457031 26.199219 28.039062 24.238281 29.03125 21.820312 C 28.414062 21.976562 27.792969 22.101562 27.171875 22.191406 C 26.550781 22.285156 25.929688 22.332031 25.3125 22.332031 C 21.496094 22.332031 18.246094 20.992188 15.5625 18.308594 C 12.878906 15.621094 11.535156 12.375 11.539062 8.558594 C 11.539062 7.9375 11.585938 7.320312 11.675781 6.699219 C 11.769531 6.078125 11.894531 5.457031 12.050781 4.835938 C 9.628906 5.828125 7.667969 7.410156 6.164062 9.582031 C 4.65625 11.753906 3.90625 14.207031 3.90625 16.933594 C 3.90625 20.535156 5.179688 23.605469 7.722656 26.148438 C 10.265625 28.691406 13.335938 29.964844 16.933594 29.964844 " fill-opacity="1" fill-rule="nonzero"/></g></svg>