<svg xmlns="http://www.w3.org/2000/svg" xmlns:xlink="http://www.w3.org/1999/xlink" width="45" zoomAndPan="magnify" viewBox="0 0 33.75 33.749998" height="45" preserveAspectRatio="xMidYMid meet" version="1.0"><defs><clipPath id="060a87d0a6"><path d="M 0 0 L 33.5 0 L 33.5 33.5 L 0 33.5 Z M 0 0 " clip-rule="nonzero"/></clipPath></defs><g clip-path="url(#060a87d0a6)"><path fill="#000000" d="M 16.75 33.5 C 12.097656 33.5 8.144531 31.875 4.886719 28.617188 C 1.628906 25.359375 0 21.402344 0 16.75 C 0 12.097656 1.628906 8.144531 4.886719 4.886719 C 8.144531 1.628906 12.097656 0 16.75 0 C 17.183594 0 17.613281 0.015625 18.03125 0.046875 C 18.449219 0.078125 18.863281 0.125 19.261719 0.1875 C 17.992188 1.085938 16.976562 2.257812 16.214844 3.699219 C 15.453125 5.144531 15.074219 6.703125 15.074219 8.375 C 15.074219 11.167969 16.054688 13.539062 18.007812 15.496094 C 19.960938 17.449219 22.335938 18.425781 25.125 18.425781 C 26.832031 18.425781 28.398438 18.046875 29.824219 17.285156 C 31.253906 16.523438 32.417969 15.507812 33.316406 14.238281 C 33.378906 14.640625 33.425781 15.050781 33.457031 15.46875 C 33.488281 15.886719 33.5 16.316406 33.5 16.75 C 33.5 21.402344 31.875 25.359375 28.617188 28.617188 C 25.359375 31.875 21.402344 33.5 16.75 33.5 " fill-opacity="1" fill-rule="nonzero"/></g></svg>